<?xml version="1.0" encoding="UTF-8"?>
<svg xmlns="http://www.w3.org/2000/svg" width="512" height="512" viewBox="0 0 128 128"><g><path d="M97.885,92.436a50.4,50.4,0,1,0-67.77,0c-1.789,12.613-7.19,19.022-7.242,19.083a1.745,1.745,0,0,0-.433,1.151v8.83a1.75,1.75,0,0,0,1.75,1.75H47.86a1.75,1.75,0,0,0,1.75-1.75v-7.08H78.39v7.08a1.75,1.75,0,0,0,1.75,1.75h23.67a1.75,1.75,0,0,0,1.75-1.75v-8.83a1.745,1.745,0,0,0-.433-1.151C105.072,111.455,99.684,105.134,97.885,92.436ZM17.1,55.154a46.9,46.9,0,1,1,46.9,46.9A46.957,46.957,0,0,1,17.1,55.154Zm84.964,64.6H81.89v-7.08a1.75,1.75,0,0,0-1.75-1.75H47.86a1.75,1.75,0,0,0-1.75,1.75v7.08H25.94v-6.465c1.349-1.761,5.43-7.807,7.3-18.242a50.247,50.247,0,0,0,61.521,0c1.872,10.433,5.949,16.483,7.3,18.244Z"/><path d="M64,99.558a44.4,44.4,0,1,0-44.4-44.4A44.454,44.454,0,0,0,64,99.558Zm0-3.5A40.806,40.806,0,0,1,33.612,82.5H58a6.244,6.244,0,0,0,1.246,2.3V91A1.75,1.75,0,0,0,61,92.75h6A1.75,1.75,0,0,0,68.75,91V84.8A6.244,6.244,0,0,0,70,82.5H94.388A40.806,40.806,0,0,1,64,96.058ZM24.405,65.43H103.6A40.738,40.738,0,0,1,97.2,79H70a6.221,6.221,0,0,0-1.055-2.062l.627-4.213a5.632,5.632,0,1,0-11.139-.017l.63,4.23A6.221,6.221,0,0,0,58,79H30.8A40.738,40.738,0,0,1,24.405,65.43ZM30.8,31.311H97.2a40.753,40.753,0,0,1,6.389,13.559H24.407A40.753,40.753,0,0,1,30.8,31.311ZM104.331,48.37a40.433,40.433,0,0,1,0,13.56H23.668a40.433,40.433,0,0,1,0-13.56ZM61.891,72.191a2.132,2.132,0,1,1,4.218,0l-.38,2.557a6.136,6.136,0,0,0-3.457,0ZM61.25,80.75A2.75,2.75,0,1,1,64,83.5,2.752,2.752,0,0,1,61.25,80.75Zm1.5,6.124a6.263,6.263,0,0,0,2.5,0V89.25h-2.5ZM64,14.25A40.806,40.806,0,0,1,94.391,27.811H33.609A40.806,40.806,0,0,1,64,14.25Z"/><path d="M70.134,20.782a34.887,34.887,0,0,1,4.421,1.081,1.75,1.75,0,0,0,1.053-3.338,38.494,38.494,0,0,0-4.866-1.19,1.75,1.75,0,1,0-.608,3.447Z"/></g></svg>
